<?xml version="1.0" encoding="utf-8"?>
<!-- Generator: Adobe Illustrator 23.0.6, SVG Export Plug-In . SVG Version: 6.00 Build 0)  -->
<svg version="1.1" id="Layer_1" xmlns="http://www.w3.org/2000/svg" xmlns:xlink="http://www.w3.org/1999/xlink" x="0px" y="0px"
	 viewBox="0 0 25 25" style="enable-background:new 0 0 25 25;" xml:space="preserve">
<style type="text/css">
	.st0{fill:#FFFFFF;}
</style>
<title>plus</title>
<path class="st0" d="M1.6,10.9h21.9c0.9,0,1.6,0.7,1.6,1.6l0,0c0,0.9-0.7,1.6-1.6,1.6H1.6c-0.9,0-1.6-0.7-1.6-1.6l0,0
	C0,11.6,0.7,10.9,1.6,10.9z"/>
<path class="st0" d="M1.6,4h21.9C24.3,4,25,4.7,25,5.6l0,0c0,0.9-0.7,1.6-1.6,1.6H1.6C0.7,7.1,0,6.4,0,5.6l0,0C0,4.7,0.7,4,1.6,4z"
	/>
<path class="st0" d="M1.6,17.9h21.9c0.9,0,1.6,0.7,1.6,1.6l0,0c0,0.9-0.7,1.6-1.6,1.6H1.6C0.7,21,0,20.3,0,19.4l0,0
	C0,18.6,0.7,17.9,1.6,17.9z"/>
</svg>
