<?xml version="1.0" encoding="utf-8"?>
<!-- Generator: Adobe Illustrator 23.0.6, SVG Export Plug-In . SVG Version: 6.00 Build 0)  -->
<svg version="1.1" id="Layer_1" xmlns="http://www.w3.org/2000/svg" xmlns:xlink="http://www.w3.org/1999/xlink" x="0px" y="0px"
	 viewBox="0 0 48 48" style="enable-background:new 0 0 48 48;" xml:space="preserve">
<style type="text/css">
	.st0{fill:#FFFFFF;}
</style>
<path class="st0" d="M44,40l-4,4L28,32v-4h4L44,40z"/>
<path class="st0" d="M18,32c-7.8,0-14-6.2-14-14S10.2,4,18,4s14,6.2,14,14S25.8,32,18,32z M18,8C12.4,8,8,12.4,8,18s4.4,10,10,10
	s10-4.4,10-10S23.6,8,18,8z"/>
<path class="st0" d="M25.2,26.8l1.4-1.4l4.9,5l-1.4,1.4L25.2,26.8z"/>
</svg>
