<?xml version="1.0" encoding="utf-8"?>
<!-- Generator: Adobe Illustrator 23.0.6, SVG Export Plug-In . SVG Version: 6.00 Build 0)  -->
<svg version="1.1"
	 id="svg2" xmlns:cc="http://creativecommons.org/ns#" xmlns:dc="http://purl.org/dc/elements/1.1/" xmlns:inkscape="http://www.inkscape.org/namespaces/inkscape" xmlns:rdf="http://www.w3.org/1999/02/22-rdf-syntax-ns#" xmlns:sodipodi="http://sodipodi.sourceforge.net/DTD/sodipodi-0.dtd" xmlns:svg="http://www.w3.org/2000/svg"
	 xmlns="http://www.w3.org/2000/svg" xmlns:xlink="http://www.w3.org/1999/xlink" x="0px" y="0px" viewBox="0 0 32 32"
	 style="enable-background:new 0 0 32 32;" xml:space="preserve">
<style type="text/css">
	.st0{fill:#FFFFFF;}
</style>
<g id="background">
	<rect class="st0" width="32" height="32"/>
</g>
<g id="user_x5F_profile_x5F_edit">
	<path class="st0" d="M12,18c2.2,0,4-1.8,4-4s-1.8-4-4-4s-4,1.8-4,4S9.8,18,12,18z M24,14.1V5.6L18.4,0H0v32h24v-0.1
		c4.5-0.5,8-4.3,8-8.9S28.5,14.6,24,14.1z M18,2.4L21.6,6H18V2.4z M2,30V2h14v6h6v6.1c-3.5,0.4-6.3,2.8-7.5,5.9C11,20,6,20,6,20
		s-2,0-2,2c0,1,0,6,0,6h11.5c0.5,0.8,1.1,1.4,1.8,2H2z M23,30c-3.9,0-7-3.1-7-7c0-3.9,3.1-7,7-7c3.9,0,7,3.1,7,7
		C30,26.9,26.9,30,23,30z"/>
	<polygon class="st0" points="22,27 19,27 19,24 	"/>
	<rect x="20.5" y="19.9" transform="matrix(0.7071 -0.7071 0.7071 0.7071 -8.5263 23.4142)" class="st0" width="7.1" height="4.2"/>
</g>
</svg>
